<svg width="278" height="51" viewBox="0 0 278 51" fill="none" xmlns="http://www.w3.org/2000/svg">
<g clip-path="url(#clip0_243_2799)">
<path d="M265.751 39.9691H259.666V8.04883H265.751V17.5669C267.006 10.7826 269.739 8.04883 275.124 8.04883H277.186V14.7531H274.243C268.209 14.7531 265.747 17.1746 265.747 23.1064V39.9651L265.751 39.9691Z" fill="#161616"/>
<path d="M213.673 40.9741C211.476 40.9741 209.61 40.3377 208.108 39.0729C206.313 37.5599 205.098 35.1424 204.585 32.0724L201.745 15.0376L197.11 15.8221L196.229 10.5427L198.941 10.0824C199.454 9.99436 199.902 9.71018 200.208 9.28591C200.51 8.85764 200.629 8.33731 200.542 7.82098L199.41 1.02465L205.455 0L206.202 4.46684C206.512 6.33603 205.67 7.62485 204.911 8.37733C204.502 8.78159 204.077 9.07378 203.751 9.2699L216.93 7.03648L217.812 12.3158L207.799 14.0129L210.503 30.2352C210.805 32.0324 211.373 33.2572 212.243 33.9816C213.157 34.7381 214.424 34.9703 216.12 34.6821C217.855 34.3899 219.234 33.7775 220.731 33.0691L220.834 33.021L222.534 38.5045L222.459 38.5445C220.286 39.6532 218.673 40.3057 215.889 40.774C215.119 40.906 214.384 40.9701 213.681 40.9701" fill="#161616"/>
<path d="M135.396 50.1719H129.26V8.05308H135.396V17.1108C136.906 10.4426 140.913 7.06445 147.304 7.06445C155.692 7.06445 160.502 13.2164 160.502 23.9392C160.502 34.662 155.593 41.0221 147.371 41.0221C140.802 41.0221 136.775 37.6079 135.396 30.8716V50.1679V50.1719ZM145.123 12.7C139.035 12.7 135.4 16.8267 135.4 23.7351V24.2154C135.4 31.0437 139.217 35.4585 145.123 35.4585C151.03 35.4585 154.437 31.3679 154.437 23.9392C154.437 16.5105 151.304 12.696 145.123 12.696" fill="#161616"/>
<path d="M123.873 39.9665H117.788V20.8983C117.788 17.8043 116.815 12.609 110.309 12.609C104.947 12.609 101.745 15.707 101.745 20.8983V39.9665H95.6604V20.8983C95.6604 17.8043 94.6873 12.609 88.1814 12.609C82.8194 12.609 79.6181 15.707 79.6181 20.8983V39.9665H73.5332V8.05414H79.6181V15.9432C81.0281 10.1034 84.8212 7.02148 90.6162 7.02148C97.0347 7.02148 100.824 10.4156 101.582 16.8397C102.699 10.2315 106.305 7.02148 112.604 7.02148C117.744 7.02148 123.869 9.16685 123.869 19.3934V39.9625L123.873 39.9665Z" fill="#161616"/>
<path d="M55.0701 40.9333C52.6989 41.2375 50.1172 40.9773 47.4045 40.1088C42.6819 38.5998 39.2304 35.8421 37.4232 32.1357C35.6319 28.4534 35.4968 23.9225 37.0339 19.0274C38.5591 14.1803 41.3077 10.594 44.9896 8.66476C48.596 6.77155 52.9214 6.54341 57.4969 8.00434C66.803 10.9742 70.8464 19.1554 67.7999 28.8496C65.5678 35.9501 60.9564 40.1808 55.0701 40.9373M51.0625 12.8754C47.2972 13.3557 44.3223 16.1415 42.8527 20.8165C40.7238 27.5928 43.0314 32.7841 49.0329 34.7013C51.9999 35.6499 54.7723 35.4058 57.0521 33.9969C59.2763 32.624 60.9922 30.1825 62.0169 26.9324C64.0505 20.4563 61.6475 15.261 55.7374 13.3718C54.0891 12.8474 52.5202 12.6873 51.0665 12.8754" fill="#161616"/>
<path d="M171.732 28.4255H166.334L165.254 8.06055H172.197L171.732 28.4255Z" fill="#161616"/>
<path d="M184.723 8.06055H191.665L190.585 28.4255H185.187L184.723 8.06055Z" fill="#161616"/>
<path d="M25.4755 28.4154C24.3554 31.9056 22.3338 35.3198 16.5706 35.3198C13.4567 35.3198 10.863 34.2951 9.06775 32.3539C7.24864 30.3886 6.28348 27.5188 6.28348 24.0566C6.28348 20.3823 7.22878 17.5205 9.09158 15.5432C10.8313 13.698 13.3454 12.7254 16.368 12.7254C21.166 12.7254 24.1767 15.0669 25.5708 19.878L25.5907 19.95H31.7947L31.7749 19.8299C30.2378 11.2044 25.2213 7.00977 16.4356 7.00977C6.4503 7.01377 0 13.678 0 23.9886C0 29.2519 1.57683 33.6067 4.55572 36.5846C7.46709 39.4944 11.6455 41.0314 16.6381 41.0314C25.0187 41.0314 30.0908 36.7687 31.7352 28.4154H25.4715H25.4755Z" fill="#161616"/>
<path d="M239.852 6.97656C234.991 6.97656 230.896 8.56557 228 11.5675C225.053 14.6254 223.496 19.0242 223.496 24.2876C223.496 34.6262 229.791 41.0463 239.924 41.0463C247.506 41.0463 252.574 37.472 254.429 30.8077H248.308C246.799 34.0298 244.058 35.5908 239.924 35.5908C233.93 35.5908 230.32 32.1606 229.744 26.0087H254.488L254.496 25.9566C254.6 24.3836 254.635 23.1789 254.635 22.0782C254.635 12.7642 248.972 6.97656 239.856 6.97656M239.646 12.364C245.27 12.364 248.364 15.2378 248.852 20.9695H229.839C230.701 15.3179 234.085 12.364 239.646 12.364Z" fill="#161616"/>
</g>
<defs>
<clipPath id="clip0_243_2799">
<rect width="277.2" height="50.1719" fill="white"/>
</clipPath>
</defs>
</svg>
